<svg xmlns="http://www.w3.org/2000/svg" fill="none" viewBox="0 0 50 50">
  <path fill="#000" d="M13.972 18.126h-3.186L8.122 25.56h2.859l.327-1.245h2.147c.11.423.219.834.329 1.253h2.857l-2.669-7.442Zm-2.286 4.668.7-2.769.67 2.743c-.226.07-.96.084-1.37.026ZM32.39 19.63c-.42-.84-1.105-1.363-2.022-1.59-.492-.122-.99-.131-1.489-.1a3.399 3.399 0 0 0-3.028 2.382c-.206.653-.252 1.319-.196 1.994.146 1.791 1.293 3.135 3.16 3.386 1.17.157 2.32.019 3.445-.323.143-.044.28-.108.441-.172l-.716-1.959-.265.097a5.295 5.295 0 0 1-2.037.34c-.362-.014-.709-.088-1.014-.297a.936.936 0 0 1-.394-.505c1.511-.19 2.985-.377 4.492-.568.1-.95.04-1.847-.377-2.685Zm-4.314 1.623c-.003-.394.055-.725.265-1.017.28-.392.84-.552 1.284-.373.268.108.42.318.5.58.049.162.063.335.102.555l-2.151.255Zm-3.941 2.06c-.1-.258-.295-.483-.465-.71-.09-.118-.219-.206-.354-.33.108-.072.185-.121.259-.174a2.1 2.1 0 0 0 .798-1.053c.33-.962-.102-2.06-1.007-2.573-.6-.34-1.25-.488-1.928-.53a9.867 9.867 0 0 0-2.677.186c-.386.082-.772.168-1.113.35v7.07c.42.062 2.384.044 2.622-.029v-2.54c.735-.123 1.068.068 1.282.723.17.522.338 1.046.509 1.568.033.104.076.204.107.287h2.756c-.268-.768-.507-1.514-.79-2.244Zm-2.283-2.703c-.026.449-.268.721-.716.774-.27.032-.547.006-.86.006v-1.791c.326-.093.647-.1.968-.021.303.075.5.27.564.578.03.148.053.304.044.454Z"/>
  <path fill="#000" d="M49.5 49.5v4h4v-4h-4Zm-4-49v49h8V.5h-8Zm4 45H.5v8h49v-8Z" mask="url(#path-1-inside-1_15_124)"/>
</svg>
