<svg xmlns="http://www.w3.org/2000/svg" fill="none" viewBox="0 0 76 96">
  <path fill="#060A0E" fill-rule="evenodd" d="M12.88.58c.4-.14.78-.28 1.18-.37a5 5 0 0 1 2.68.37 8 8 0 0 0 1.53.4c.57.1 1.13-.01 1.7-.12.47-.09.95-.18 1.44-.15 2.2.13 4.18 2.1 4.92 4.1.32.86.18 1.74.05 2.6-.14.86-.27 1.7.05 2.47.23.55.62 1.01 1 1.47.33.4.65.79.89 1.24.98 1.91 1.22 5.8-.27 7.56-.61.72-1.6.71-2.43.44l-.5-.16c-1.63-.53-3.73-1.2-4.47-2.77-.24-.5-.25-1.05-.27-1.6-.02-.66-.04-1.32-.44-1.85-.6-.8-1.45-.3-1.82.42-.41.78-.27 1.59-.13 2.4l.02.09c.05.3.07.61.09.94.05.92.1 1.87.95 2.43.43.28.94.36 1.45.45l.58.11c1.79.42 5.06 1.32 5.25 3.41.12 1.43-.77 2.36-1.66 3.3-.3.31-.61.63-.87.97l-.29.37c-.55.73-1.17 1.55-2 1.9-.38.17-.9.13-1.41.1-.82-.06-1.65-.12-1.98.6-.27.6.13 1.22.62 1.57.27.19.53.35.8.5.8.49 1.53.92 1.84 2.03.67 2.48.22 5.99-2.24 7.36-.53.3-1.11.42-1.7.54-.74.16-1.47.32-2.07.81-.87.71-.26 1.9.65 2.23 1.82.67 3.5-.1 4.85-1.04.37-.26.75-.6 1.14-.96.46-.42.93-.86 1.42-1.16.9-.57 2.39-2.33 2.56-3.24.05-.3.12-.58.18-.87.17-.74.34-1.49.32-2.27a5.25 5.25 0 0 0-.46-1.74 5.04 5.04 0 0 1-.46-1.82c0-1.57 1.12-4.4 2.62-4.8.59-.16 2.45 1.65 2.8 2.05.44.5.73 1.1 1.03 1.7.37.75.74 1.5 1.38 2.04.57.48 1.4 1.01 2.11.55.9-.58 1.35-2.09.45-2.86-.37-.32-.8-.52-1.24-.72-.42-.2-.84-.39-1.2-.68-2.16-1.77-2.69-4.18-.5-6.14a4.76 4.76 0 0 1 6.38.36c.28.3.52.7.74 1.08.4.69.77 1.3 1.3 1.06.81-.94.68-1.8.28-2.82-.26-.68-.3-.87-.4-1.36l-.24-1.1c-.74-1.85-.79-5.04.64-6.49 1.93-1.95 3.57-1.65 5.61-.06.86.66 3.44 1.4 4.65.36.85-.74 1.15-2.2.05-2.85a9.3 9.3 0 0 0-2.7-.72c-2.19-.39-4.66-.83-4.72-2.8-.05-1.46 2.22-2.12 4.31-2.73 1.23-.36 2.4-.7 3-1.18a7.7 7.7 0 0 0 1.57-1.57c.35-.32.55-.6.72-.85.3-.4.52-.7 1.22-.96.53-.19.98-.5 1.43-.8.6-.41 1.18-.82 1.92-.94 1.04-.18 2 .02 2.98.23.44.1.89.18 1.34.24.6.08 1.38.1 2.26.14 2.29.09 5.15.2 6.49 1.23.94.72.58 2.02.22 3.37-.29 1.06-.58 2.14-.26 2.99.15.38.32.75.49 1.13.32.74.65 1.48.83 2.25.38 1.63.23 3.25.07 4.88l-.03.3c-.06.62-.55 1.27-1.03 1.9-.32.43-.63.84-.8 1.23a8.92 8.92 0 0 1-2.48 3.46l-.3.3c-.27.26-.5.52-.72.75-.9.95-1.56 1.67-3.22 2.05-1.08.25-1.75-.51-2.31-1.3l-.43-.59c-1.29-1.73-3.27-4.42-2.5-6.34.3-.78 1.06-1.06 1.8-1.33.72-.27 1.43-.52 1.65-1.27.31-1.04-.78-1.71-1.67-1.72-2.25-.03-2.94 1.52-3.7 3.23l-.23.52-.08.17c-.43.95-.95 2.06-.51 3.1.22.53.64.93 1.05 1.32l.5.5c.86.95 3.02 3.36 3.62 4.5.58 1.1.87 2.48-.14 3.45-2.32 2.24-5.25 2.42-7.13-.32a6.84 6.84 0 0 1-.55-1.22c-.56-1.44-1.28-3.3-2.69-2.24-.99.75-.93 2.45-.14 3.3 1.73 1.85 2.39 3.04 1.12 6.2-.18.47-.43.91-.73 1.3-.4.53-.86.94-1.46 1.21-1.87.85-5.52-2.41-6.5-3.86-.19-.3-.29-.37-.4-.46-.1-.08-.22-.16-.4-.38-.62-.74-.82-.58-1.47.28a3.1 3.1 0 0 1-.85.67c-.51.32-.93.57-.44 1.01.37.34.92.46 1.46.58.3.06.6.13.87.24 2.06.84 5.64 3.7 3.65 6.17-.73.91-1.69.89-2.73.87h-.49c-1.07 0-1.98-.21-2.95-.43a49.56 49.56 0 0 0-1.37-.29c-1.6-.32-2.98-.6-4.39-1.62a21.6 21.6 0 0 1-.26-.2c-1.07-.79-3.15-2.34-4.02-.7-1.02 1.92 1.2 2.83 2.67 3.44l.5.2.41.2c.6.27 1.2.55 1.85.65.44.07.88.09 1.32.1.6.03 1.21.05 1.81.22.4.1.78.3 1.16.49.6.3 1.2.6 1.87.6.56 0 1.04-.24 1.52-.47a3.3 3.3 0 0 1 1.5-.47c.96 0 1.43.72 1.4 1.62-.04 1.37-1.25 1.53-2.38 1.68-.42.06-.84.11-1.18.23-.75.27-1.4.73-2.04 1.2l-.44.32-.08.05c-.58.41-1.73 1.2-1.46 2 .32.92 1.6 1.39 2.38.82.32-.22.7-.54 1.12-.9 1.77-1.5 4.25-3.6 6.12-1.9 1.12 1 1.08 2.92.86 4.28a6.3 6.3 0 0 1-.13.53c-.15.57-.3 1.15.08 1.68.48.7 1.35.7 2.15.7l.62.01c1.52.1 3.36 1.12 3.55 2.8.26 2.21-.97 3.47-2.23 4.76l-.67.7c-.77.83-.64 2.2.3 2.87 1.27.9 2.18-1.06 2.77-2.32.13-.29.25-.55.35-.72.19-.3.27-.67.35-1.03.13-.6.26-1.17.88-1.36 1.58-.5 5 .95 5.96 2.13 1.8 2.2 2.54 5.3.91 6.71l-.16.14a5 5 0 0 0-1.27 1.4c-.6 1.14-.07 2.37.42 3.5.13.32.27.64.37.94.35.99.7 1.84 1.66 2.38.93.54 3.72.92 3.39-.98-.15-.85-.9-1.2-1.64-1.56-.68-.33-1.36-.65-1.64-1.36-.7-1.78 1.03-3.9 2.33-5.5.3-.37.59-.72.81-1.02.54-.75 1.26-1.42 2.26-1.34 1.32.1 1.6 1.21 1.88 2.37.19.75.38 1.52.87 2.06.48.52.62 1.18.77 1.85.11.54.23 1.09.54 1.58 1.17 1.94 1.28 3.8.8 6.04a6.3 6.3 0 0 0 .16 2.54c.2 1 .4 2 .03 2.88a14.2 14.2 0 0 0-.6 2c-.4 1.6-.75 3.05-2.5 3.8-.8.33-1.6.33-2.4.32-.42 0-.85 0-1.28.05-.52.05-1.03.2-1.54.35-.66.2-1.33.4-2.02.38a6.04 6.04 0 0 1-2.77-.92 11.8 11.8 0 0 0-1.34-.64c-.55-.2-1.45.1-2.33.4-.87.29-1.73.58-2.26.39-.49-.17-1.08-.29-1.7-.4-1.07-.21-2.2-.43-2.85-.97-1.75-1.46-2.39-3.88-2.47-6.44-.07-2.16 1.74-2.61 3.45-3.03.62-.15 1.23-.3 1.73-.53 1.11-.5-.18-3.25-.75-4.16-.61-1-1.5-.5-2.14.16-.34.34-.68.86-1.05 1.41-.94 1.42-2 3.02-3.36 2.2-1.7-1.02-3.8-4.2-3.76-6.15 0-.32.06-.82.13-1.41.2-1.74.49-4.31-.13-5.53-.81-1.58-2.29-1.5-3.85-1.43-.34.01-.68.03-1.03.03-.53 0-1.15.1-1.8.2-1.67.25-3.52.53-4.53-.72-1.56-1.93 1.12-5.07 2.63-6.1.89-.59 1.94-1.5.98-2.54-.97-1.05-1.64-.47-2.44.23l-.27.24a6.4 6.4 0 0 0-2.09 2.56c-.1.3-.16.63-.2.97-.08.5-.15 1-.44 1.4-.43.61-1.38.68-1.98.3-1.04-.65-.45-2 .05-3.14.2-.47.4-.92.45-1.26a4.8 4.8 0 0 0-.34-2.2 5.58 5.58 0 0 1-.37-2.02 5.62 5.62 0 0 1 1.17-3.03c.45-.6.91-1.24.46-2a4.3 4.3 0 0 0-1.46-1.22l-.4-.25-.14-.09a2.97 2.97 0 0 0-1.37-.6c-.26-.03-.53.05-.75.18-1.39.8-.63 1.97.03 2.98.2.32.4.63.52.9.15.36.2.7.2 1.08 0 .47-.16.97-.32 1.47-.21.64-.42 1.28-.28 1.86.06.26.2.56.36.9.4.87.9 1.9.02 2.5-1 .67-1.63-.34-2.2-1.24-.25-.4-.5-.79-.75-.98-.51-.4-1.27-.5-1.93-.58l-.3-.04c-1.11-.15-4.5-.38-4.39 1.5.09 1.54 1.73 1.33 2.94 1.18.3-.04.58-.08.8-.08 1.95-.04 4 1.67 5.38 2.89l.14.12c.6.52 1.22 1.07 1.12 1.95-.1.91-.7 1.31-1.3 1.71-.51.34-1.02.67-1.19 1.32-.15.56.12 1.1.4 1.66.36.74.73 1.49.03 2.28-.71.8-1.83 1.2-2.95 1.6-1.13.39-2.25.78-2.95 1.6-.64.74-.76 2.1-.84 3.07l-.01.15L18 80c-.07.55-.13 1.01.2 1.6.36.62 1.11 1.26 1.73.52.43-.51.48-1.22.54-1.93.03-.5.07-.98.23-1.4.7-1.78 2.93-2.9 4.6-3.62.88-.37 1.97-.4 2.64.4 1.55 1.87 1.42 5.95.38 7.97-.23.45-.57.84-.9 1.23-.4.46-.8.92-1.01 1.48-.25.64-.12 1.3.02 1.96.06.29.12.57.14.85a5.37 5.37 0 0 1-.82 3.41c-.92 1.4-2.5 2.77-4.23 2.85-.51.02-1-.07-1.5-.15A7.06 7.06 0 0 0 18.6 95c-.58.02-1.12.22-1.65.43-.52.2-1.04.4-1.6.42-.85.04-1.59-.19-2.33-.42a5.96 5.96 0 0 0-3.45-.3c-.8.12-1.58.25-2.42-.04-2.11-.72-4.03-3.2-4.06-5.46 0-.44.1-.89.2-1.34.16-.7.32-1.39.08-2.05a5.67 5.67 0 0 0-1.11-1.69 6.6 6.6 0 0 1-.93-1.26c-.8-1.48-.68-3.07-.57-4.66v-.06c.08-.96.17-2.17 1.1-2.73.75-.44 1.6-.29 2.37-.04l.7.22c1.56.46 3.45 1.03 4.22 2.44.28.5.3 1.07.33 1.64.02.54.05 1.1.29 1.6.33.71 1 .77 1.5.2 1.16-1.26.93-5.54-.67-6.43-.5-.28-1.06-.33-1.62-.38-.3-.03-.58-.06-.86-.11-.58-.12-1.12-.34-1.67-.55-.34-.13-.68-.26-1.03-.37-.97-.31-2.01-.7-2.4-1.75a4.54 4.54 0 0 1-.1-1.74l.02-.64c0-.73.06-1.37.34-2.05.88-2.15 4.06-1.87 5.92-1.34l.41.12c.98.32 2.2.72 2.48-.73.24-1.29-1.23-2.26-2.35-2.26-.6 0-1.34.16-2.1.32-2.03.45-4.29.94-5.06-1.34-.55-1.65-.63-4.51 1-5.58.32-.2.77-.3 1.22-.42.7-.16 1.41-.33 1.7-.87.4-.77-.33-1.31-.94-1.77a4.4 4.4 0 0 1-.49-.4c-.43-.41-.48-1.04-.38-1.6.13-.69.74-.95 1.35-1.22.67-.29 1.33-.57 1.33-1.43 0-1.21-1.42-.9-2.31-.7-.15.03-.28.06-.4.07-1.86.32-2.85-1.13-2.68-2.88l.02-.2c.17-1.75.49-5.1 2.24-5.82.9-.38 2.02-.19 3.06-.01.44.07.86.15 1.25.17a4.8 4.8 0 0 0 2.6-.71c.56-.32 1.76-1.08 1.59-1.86-.32-1.43-1.59-.92-2.46-.54-1.48.64-5.8 1.73-6.57-.45-.61-1.74-.02-3.55.88-5.06.15-.26.33-.5.5-.72.45-.57.85-1.1.75-1.98-.09-.73-.64-1.39-1.2-2.05-.88-1.03-1.76-2.07-.87-3.4.38-.58 1.04-.79 1.67-.99l.41-.13c.43-.15.84-.36 1.24-.56.45-.22.89-.44 1.36-.59.22-.07.47-.13.71-.19.66-.15 1.33-.31 1.79-.81.54-.59.62-1.42.69-2.2.02-.26.04-.5.08-.74l.04-.22c.15-.9.3-1.8-.37-2.57-.6-.7-1.32-.61-1.75.2-.25.47-.28 1-.3 1.54-.04.54-.07 1.08-.32 1.59-.8 1.6-2.96 2.36-4.59 2.93l-.2.07c-.86.3-1.8.39-2.5-.3C.17 18.7.43 14.4 1.4 12.62c.25-.47.58-.87.92-1.28.34-.4.67-.8.92-1.27.42-.77.26-1.66.1-2.57a5.04 5.04 0 0 1-.07-2.28C3.88 3.08 5.93.93 8.23.72a5.4 5.4 0 0 1 1.55.14c.53.1 1.05.2 1.58.14.53-.05 1.03-.24 1.52-.42Zm3.15 7.1c-3.1.52-3.86-4.33-.96-4.86.7-.12 1.75-.06 2.3.45 1.53 1.43.6 4.1-1.34 4.41ZM58 7.48c-2.06-1.44-.7-3.74 1.36-4.06 1.7-.26 2.26.96 2.26 2.43 0 .9 0 1.8-1.08 2-.79.15-1.86.11-2.54-.37Zm10.93 3.17c-1.93.66-.53 4.16 1.16 3.6 1.42-.48.63-4.2-1.16-3.6ZM45.27 21.31c-3.1.72-3.87-4.17-1.07-4.81 1.34-.31 3.84 1.7 3.51 3.15-.2.87-1.66 1.48-2.44 1.66Zm-25.15 1.86c-.6.25-.75 1.06-.75 1.64v.33c-.04 1.37-.09 3.9 1.93 3.06 1.03-.43 2.8-2.29 2.63-3.5-.17-1.17-2.82-1.94-3.8-1.53ZM7.2 33.09c.34-1.02 1.3-2.26 2.38-2.43 1.77-.28 2.97 1.3 1.89 2.83-.55.77-1.97 1.15-2.85 1.27-1.13.16-1.8-.55-1.42-1.67Zm39.58-1.33c-2.06.64-.1 3.82 1.6 3.3 2.12-.65.15-3.85-1.6-3.3Zm-30.1 20.3c-2.52.37-1.22-3 .53-3.32 1.12-.2 1.86 1 1.54 1.97-.3.91-1.2 1.23-2.07 1.35Zm31.28 8.29c-.71.23-.95 1.08-.64 1.73.44.91 1.93 2.23 3 1.89.9-.3 2.99-1.8 1.98-2.97-.59-.67-3.51-.91-4.34-.65Zm-12.6 5.8c-.5-1.26 1.22-2.72 2.28-3 2.08-.57 3.82 3.59 1.5 4.26-.97.29-3.37-.23-3.78-1.27ZM7.1 68.3c-.95.38-1.02 1.82-.44 2.52.76.93 2.94 1.63 4.1 1.18.93-.37.83-2.06.3-2.73-.74-.93-2.85-1.4-3.96-.97Zm12 4.3c-1.14-.71-1.08-3.78.28-4.3 1.57-.6 3.9 1.24 3.19 2.92-.28.65-.99.94-1.6 1.17l-.06.02-.07.03c-.53.2-1.23.47-1.74.16Zm27.43 1.73c-.85.27-.93 1.23-.99 1.97-.1 1.4-.03 4.13 2.16 3.38 1.12-.39 2.39-1.7 2.16-2.95-.2-1.14-2.17-2.77-3.33-2.4Zm26.73 8.6c-1.53.33-2.03 3.62-.11 3.33 1.35-.2 1.75-3.68.1-3.33Zm-57.99 4.59c-1.87.31-2.88 2.9-1.41 4.34.6.6 1.7.67 2.49.5 2.8-.55 1.97-5.36-1.08-4.84Zm45.81 4.86c-.8-1.28.28-3.13 1.64-3.44.7-.16 1.86-.2 2.38.37.98 1.07.43 3.64-.98 4.02-.95.25-2.5-.07-3.04-.95Z" clip-rule="evenodd"/>
</svg>
